# xmcd
#
# Track frame offsets:
#	150
#	17655
#	36674
#	50844
#	68380
#	82648
#	99259
#	119064
#	132204
#	147095
#	163260
#	179587
#	195769
#	211232
#	226758
#	244753
#	259290
#	273925
#	291120
#	306154
#	324554
#	338066
#
# Disc length: 4698 seconds
#
# Revision: 0
# Processed by: cddbd v1.5.1PL0 Copyright (c) Steve Scherf et al.
# Submitted via: audiograbber 1.83.01
#
DISCID=39125816
DTITLE=мфкшщгы - Radio Reliz 75. (2005)
DYEAR=1900
DGENRE=
TTITLE0=Гости из будущего. - Лучшее в тебе.
TTITLE1=Дискотека Авария. - Если хочешь, оставайся.
TTITLE2=Лицей. - Она не верит больше в любовь.
TTITLE3=Алсу. - Там, где рождается свет.
TTITLE4=Катя Лель. - Кручу-верчу.
TTITLE5=Любэ. - От Волги до Енисея. (Россея)
TTITLE6=Мумий Тролль. - Здарвствуйдосвидани.
TTITLE7=Hi-Fi. - Берега.
TTITLE8=Arash. - Tike Tike Kardi.
TTITLE9=Global Deejays. - What A Feeling. (Flashdance)(House Radio Edit)
TTITLE10=Deep Spirit. - Lonely. (Dj Lhasa Radio Cut)
TTITLE11=Scooter. - Suavemente. (Radio Edit)
TTITLE12=Paris Avenue feat. Robert One. - I Want You. (Radio Edit)
TTITLE13=Le Weekend. - 1-2-3. (Radio Version)
TTITLE14=Lisa Stansfield. - Treat Me Like A Woman.
TTITLE15=Shana Vanguarde. - Mamma Mia. (Radio Edit)
TTITLE16=Heiko and Maiko. - Gluecklich. (Original Radio Edit)
TTITLE17=Beverley Knight. - Keep this Fire Burning. (Album
TTITLE18=Ricchi E Poveri vs. Loredana Berta. - Sarа Perche Ti Amo.
TTITLE19=Amanda Lear. - Paris By Night. (Original Edit)
TTITLE20=Pure Energy. - Chirpy Chirpy Cheep. (N.R.G. Etic Radio)
TTITLE21=Narcotic Thrust. - When The Dawn Breaks.
EXTD=
EXTT0=
EXTT1=
EXTT2=
EXTT3=
EXTT4=
EXTT5=
EXTT6=
EXTT7=
EXTT8=
EXTT9=
EXTT10=
EXTT11=
EXTT12=
EXTT13=
EXTT14=
EXTT15=
EXTT16=
EXTT17=
EXTT18=
EXTT19=
EXTT20=
EXTT21=
PLAYORDER=
